<?xml version="1.0" encoding="UTF-8"?>
<svg id="b" data-name="Layer 2" xmlns="http://www.w3.org/2000/svg" width="422.18" height="420.06" viewBox="0 0 422.18 420.06">
  <g id="c" data-name="SVG_export">
    <g id="d" data-name="Layer 2 copy">
      <path d="M211.72,420.06c-58.9,0-111.18-28.83-143.49-73.13l-61.74,17.98c-2.29.67-4.63-.28-5.8-2.36s-.8-4.57.95-6.19l47.01-43.71c-9.28-21.51-14.43-45.22-14.43-70.1,0-91.31,69.3-166.74,158.07-176.44l15-62.24c.56-2.31,2.53-3.87,4.91-3.87h.01c2.39,0,4.36,1.57,4.9,3.89l14.7,62.29c88.45,10.01,157.41,85.29,157.41,176.37,0,25.44-5.38,49.64-15.06,71.54l46.42,43.93c1.73,1.64,2.1,4.13.9,6.2s-3.54,2.99-5.83,2.3l-61.29-18.44c-32.37,43.64-84.26,71.97-142.64,71.97ZM73.34,345.44c31.47,42.22,81.79,69.61,138.38,69.61s106.02-26.91,137.54-68.5l-53.17-16H124.46l-51.12,14.89ZM357.44,343.79l59.65,17.95s.08-.05.08-.08l-45.21-42.79c-4.17,8.72-9.03,17.05-14.51,24.92ZM50.81,317.47l-45.77,42.55s0,.09.03.11l60.11-17.51c-5.45-7.95-10.26-16.35-14.37-25.15ZM313.44,330.56l38.96,11.72c2.9-4.08,5.62-8.27,8.16-12.6-.82.57-1.81.88-2.86.88h-44.25ZM54.66,313.88c4.37,9.59,9.6,18.71,15.58,27.26l36.36-10.59h-40.29c-1.83,0-3.46-.94-4.37-2.53-.91-1.58-.91-3.47,0-5.05l19.76-34.23-27.04,25.14ZM344.95,293.32l17.12,29.65c.52.89.74,1.88.67,2.86,1.91-3.46,3.71-6.99,5.39-10.58l-23.18-21.94ZM296.77,325.54l60.92.02-25.63-44.42-57.11-54.04,40.64,70.39c.91,1.58.91,3.47,0,5.05-.91,1.58-2.55,2.53-4.37,2.53h-82.52l68.07,20.48ZM141.82,325.5l137.58.04-67.72-20.38-69.86,20.34ZM94.16,277.16l-27.9,48.32,57.71.02,70.17-20.44h-81.94c-1.83,0-3.46-.94-4.37-2.53-.91-1.58-.91-3.47,0-5.05l41.17-71.3-54.84,50.98ZM336.2,278.17l34.09,32.27c8.96-20.84,13.92-43.8,13.92-67.88,0-87.9-66.09-160.66-151.18-171.19l11.22,47.55,91.95,159.26ZM191.03,71.29c-85.41,10.25-151.82,83.15-151.82,171.27,0,23.55,4.74,46.01,13.32,66.48l37.67-35.02,89.21-154.51,11.62-48.21ZM236.28,300.03l74.94.03-37.44-64.91c.29,2.43.44,4.9.44,7.41,0,25.75-15.65,47.91-37.94,57.47ZM209.59,300.02h4.21c30.74-1.1,55.42-26.45,55.42-57.46,0-9.79-2.46-19.02-6.8-27.1l-1.76-3.05c-10.14-16.4-28.29-27.35-48.94-27.35-31.71,0-57.5,25.79-57.5,57.5s24.65,56.34,55.37,57.46ZM149.67,235.03l-37.5,64.95,74.94.03c-22.26-9.57-37.9-31.72-37.9-57.45,0-2.55.15-5.06.45-7.53ZM266.21,211.93l57.12,54.06-75.06-130.09,17.95,76.04ZM175.28,136.66l-72.61,125.76,54.52-50.68,18.09-75.08ZM211.72,122.61c1.83,0,3.46.94,4.37,2.53l41.43,71.77-17.95-76.07-27.52-47.7-2.25-1.25,2.17,1.25-27.86,48.26-18.19,75.5,41.43-71.76c.91-1.58,2.55-2.53,4.37-2.53ZM209.51,126.38l2.17,1.25-37.54,65.01c10.47-7.9,23.49-12.59,37.58-12.59s27.06,4.67,37.52,12.54l-37.48-64.97-2.25-1.25ZM196.3,70.74l-8.07,33.5,19.4-33.6c.11-.19.23-.37.36-.54-3.93.08-7.83.3-11.69.64ZM216.03,70.11c.12.17.24.34.35.52l19.19,33.23-7.81-33.07c-3.87-.36-7.78-.59-11.73-.69ZM211.72,65.06c4.99,0,9.94.21,14.83.61l-14.31-60.63s-.08-.04-.11-.03l-14.6,60.61c4.68-.37,9.41-.56,14.18-.56Z" style="stroke-width: 0px;"/>
    </g>
  </g>
</svg>