<?xml version="1.0" encoding="UTF-8"?>
<svg id="Layer_1" data-name="Layer 1" xmlns="http://www.w3.org/2000/svg" width="10cm" height="10cm" viewBox="0 0 283.46 283.46">
  <defs>
    <style>
      .cls-1 {
        stroke-width: 0px;
      }
    </style>
  </defs>
  <path class="cls-1" d="M153.29,172.79h40.12c3.25,0,5.64.69,7.19,2.06,1.54,1.38,2.31,3.56,2.31,6.56,0,3.42-.73,5.77-2.19,7.06-1.46,1.29-4.15,1.94-8.06,1.94h-96.88c-3.33,0-5.83-.75-7.5-2.25-1.67-1.5-2.5-3.75-2.5-6.75s.88-5.08,2.62-6.5c1.75-1.42,4.38-2.12,7.88-2.12h38.12v-80.25h-24.46c-3.43,0-6.04-.76-7.84-2.29-1.8-1.53-2.7-3.74-2.7-6.64s.83-5.07,2.5-6.52c1.67-1.45,4.17-2.17,7.5-2.17h36.62c2.25,0,4.02.46,5.31,1.38,1.29.92,1.94,2.17,1.94,3.75v92.75ZM130.17,38.91c0-9,.81-14.67,2.44-17,1.62-2.33,5.1-3.5,10.44-3.5s8.58.98,10.25,2.94c1.67,1.96,2.5,6.61,2.5,13.94s-.77,11.61-2.31,13.31c-1.54,1.71-5.02,2.56-10.44,2.56s-8.81-.79-10.44-2.38c-1.62-1.58-2.44-4.88-2.44-9.88Z"/>
</svg>