<?xml version="1.0" encoding="UTF-8"?>
<svg id="Layer_1" data-name="Layer 1" xmlns="http://www.w3.org/2000/svg" width="10cm" height="10cm" viewBox="0 0 283.46 283.46">
  <defs>
    <style>
      .cls-1 {
        stroke-width: 0px;
      }
    </style>
  </defs>
  <path class="cls-1" d="M94.67,172.79V44.79h-2.38c-5.67,0-9.56-.67-11.69-2-2.12-1.33-3.19-3.67-3.19-7,0-3,.85-5.25,2.56-6.75,1.71-1.5,4.19-2.25,7.44-2.25h19c2.25,0,4,.46,5.25,1.38,1.25.92,1.88,2.17,1.88,3.75v56.62c6.08-5.67,12.1-9.85,18.06-12.56,5.96-2.71,12.14-4.06,18.56-4.06,12.58,0,22.48,3.92,29.69,11.75,7.21,7.83,10.81,18.67,10.81,32.5v56.62h5.92c4.2,0,7.22.69,9.06,2.06,1.85,1.38,2.77,3.56,2.77,6.56s-.84,5.25-2.51,6.75c-1.67,1.5-4.18,2.25-7.52,2.25h-33.33c-3.93,0-6.58-.64-7.96-1.94-1.38-1.29-2.07-3.64-2.07-7.06s.86-5.6,2.58-6.81c1.72-1.21,4.97-1.81,9.76-1.81h4.41v-52c0-9.75-2.21-17.19-6.64-22.31s-10.86-7.69-19.29-7.69-16.14,2.88-22.61,8.62-9.71,12.88-9.71,21.38v52h4.38c5,0,8.38.62,10.12,1.88s2.62,3.5,2.62,6.75c0,3.42-.69,5.77-2.06,7.06-1.38,1.29-4.02,1.94-7.94,1.94h-33.25c-3.25,0-5.69-.75-7.31-2.25s-2.44-3.75-2.44-6.75c0-3.33.98-5.6,2.94-6.81,1.96-1.21,5.77-1.81,11.44-1.81h2.62Z"/>
</svg>