<?xml version="1.0" encoding="UTF-8"?>
<svg id="Layer_1" data-name="Layer 1" xmlns="http://www.w3.org/2000/svg" width="10cm" height="10cm" viewBox="0 0 283.46 283.46">
  <defs>
    <style>
      .cls-1 {
        stroke-width: 0px;
      }
    </style>
  </defs>
  <path class="cls-1" d="M180.17,172.54c3.42,0,6.02.75,7.81,2.25,1.79,1.5,2.69,3.71,2.69,6.62s-.86,5.25-2.56,6.75c-1.71,1.5-4.19,2.25-7.44,2.25h-81.75c-3.42,0-6.02-.75-7.81-2.25-1.79-1.5-2.69-3.75-2.69-6.75s.85-5.12,2.56-6.62c1.71-1.5,4.19-2.25,7.44-2.25h21.25v-76.37h-20.5c-3.42,0-6.06-.79-7.94-2.38-1.88-1.58-2.81-3.83-2.81-6.75s.88-5.25,2.62-6.75,4.29-2.25,7.62-2.25h19.75v-8.5c0-15.08,4.29-26.02,12.88-32.81,8.58-6.79,22.46-10.19,41.62-10.19,9.33,0,16.23,1.04,20.69,3.12,4.46,2.08,6.69,5.33,6.69,9.75,0,2.58-.96,4.71-2.88,6.38-1.92,1.67-4.38,2.5-7.38,2.5-1.5,0-5.11-.5-10.81-1.5-5.71-1-10.61-1.5-14.69-1.5-9.42,0-16.17,1.98-20.25,5.94-4.08,3.96-6.12,10.52-6.12,19.69v7.12h44.25c3.42,0,6.02.75,7.81,2.25,1.79,1.5,2.69,3.75,2.69,6.75,0,2.83-.92,5.06-2.75,6.69-1.83,1.62-4.33,2.44-7.5,2.44h-43.25v76.37h40.75Z"/>
</svg>