<?xml version="1.0" encoding="UTF-8"?>
<svg id="Layer_1" data-name="Layer 1" xmlns="http://www.w3.org/2000/svg" width="10cm" height="10cm" viewBox="0 0 283.46 283.46">
  <defs>
    <style>
      .cls-1 {
        stroke-width: 0px;
      }
    </style>
  </defs>
  <path class="cls-1" d="M179.29,190.41c-1.75,0-2.98-.44-3.69-1.31-.71-.88-1.06-2.56-1.06-5.06v-10.25c-5,6.25-11.25,11.11-18.75,14.56s-15.62,5.19-24.38,5.19c-15.75,0-28.94-5.6-39.56-16.81-10.62-11.21-15.94-25.14-15.94-41.81s5.67-31.6,17-43.06c11.33-11.46,25.46-17.19,42.38-17.19,8.58,0,16.29,1.52,23.12,4.56,6.83,3.04,12.71,7.52,17.62,13.44v-47.88h-6.62c-7.25,0-11.94-.64-14.06-1.94-2.12-1.29-3.19-3.64-3.19-7.06,0-3,.85-5.25,2.56-6.75,1.71-1.5,4.19-2.25,7.44-2.25h25.62c2.5,0,4.31.42,5.44,1.25,1.12.83,1.69,2.12,1.69,3.88v140.87h5.62c4.08,0,7.04.69,8.88,2.06,1.83,1.38,2.75,3.56,2.75,6.56,0,2.83-.79,5.04-2.38,6.62s-3.71,2.38-6.38,2.38h-24.12ZM97.42,134.29c0,11.5,3.71,20.92,11.12,28.25,7.42,7.33,16.83,11,28.25,11s20.96-3.81,28.38-11.44c7.42-7.62,11.12-17.31,11.12-29.06s-3.69-21.12-11.06-28.62-16.86-11.25-28.44-11.25-21.25,3.79-28.5,11.38c-7.25,7.58-10.88,17.5-10.88,29.75Z"/>
</svg>