<?xml version="1.0" encoding="UTF-8"?>
<svg id="Layer_1" data-name="Layer 1" xmlns="http://www.w3.org/2000/svg" width="10cm" height="10cm" viewBox="0 0 283.46 283.46">
  <defs>
    <style>
      .cls-1 {
        stroke-width: 0px;
      }
    </style>
  </defs>
  <path class="cls-1" d="M192.54,183.79c0,11.67-.59,19.94-1.76,24.81-1.18,4.88-3.19,9.14-6.04,12.81-4.7,6.17-11.26,10.85-19.69,14.06-8.43,3.21-18.35,4.81-29.76,4.81-9.5,0-16.44-.92-20.81-2.75-4.38-1.83-6.56-4.75-6.56-8.75,0-2.58,1.06-4.86,3.19-6.81,2.12-1.96,4.64-2.94,7.56-2.94,2.25,0,5.71.31,10.38.94,4.67.62,8.21.94,10.62.94,12.33,0,21.08-2.83,26.25-8.5,5.17-5.67,7.75-15.38,7.75-29.12v-15.12c-5.08,5.92-10.71,10.25-16.88,13-6.17,2.75-13.25,4.12-21.25,4.12-15.58,0-28.48-5.19-38.69-15.56-10.21-10.38-15.31-23.52-15.31-39.44s5.25-29.27,15.75-39.81c10.5-10.54,23.5-15.81,39-15.81,6.42,0,12.69,1.19,18.81,3.56s12.31,5.98,18.56,10.81v-9c0-1.75.56-3.04,1.69-3.88,1.12-.83,2.89-1.25,5.31-1.25h18.88c3.33,0,5.83.73,7.5,2.19,1.67,1.46,2.5,3.65,2.5,6.56,0,3.33-1.04,5.67-3.1,7-2.07,1.33-5.96,2-11.66,2h-2.23v91.12ZM138.17,93.41c-10.92,0-19.83,3.38-26.75,10.12-6.92,6.75-10.38,15.5-10.38,26.25s3.46,19.27,10.38,26.06c6.92,6.79,15.83,10.19,26.75,10.19s19.73-3.39,26.69-10.19c6.96-6.79,10.44-15.48,10.44-26.06s-3.48-19.29-10.44-26.12c-6.96-6.83-15.86-10.25-26.69-10.25Z"/>
</svg>