<?xml version="1.0" encoding="UTF-8"?>
<svg id="Layer_1" data-name="Layer 1" xmlns="http://www.w3.org/2000/svg" width="10cm" height="10cm" viewBox="0 0 283.46 283.46">
  <defs>
    <style>
      .cls-1 {
        stroke-width: 0px;
      }
    </style>
  </defs>
  <path class="cls-1" d="M170.42,174.54c-6.83,6.17-14.27,10.88-22.31,14.12-8.04,3.25-16.31,4.88-24.81,4.88-12.42,0-22.44-3.46-30.06-10.38-7.62-6.92-11.44-15.92-11.44-27,0-13.17,5.06-23.38,15.19-30.62s24.35-10.88,42.69-10.88c4.83,0,9.71.31,14.62.94,4.92.62,9.96,1.61,15.12,2.94v-.88c0-9.58-2.29-16.67-6.88-21.25-4.58-4.58-11.71-6.88-21.38-6.88-6.5,0-13.75,1.75-21.75,5.25s-13.29,5.25-15.88,5.25c-2.42,0-4.42-.98-6-2.94-1.58-1.96-2.38-4.48-2.38-7.56,0-4.92,4.6-9.08,13.81-12.5,9.21-3.42,20.98-5.12,35.31-5.12s25.75,3.73,33.25,11.19c7.5,7.46,11.25,18.48,11.25,33.06v56.62h6.12c5.92,0,9.88.62,11.88,1.88s3,3.5,3,6.75c0,3-.83,5.25-2.5,6.75-1.67,1.5-4.17,2.25-7.5,2.25h-19.62c-2.33,0-4.25-.71-5.75-2.12-1.5-1.42-2.5-3.46-3-6.12l-1-7.62ZM169.42,135.16c-4.58-1.5-9.02-2.6-13.31-3.31-4.29-.71-8.56-1.06-12.81-1.06-12.83,0-22.96,2.17-30.38,6.5-7.42,4.33-11.12,10.17-11.12,17.5,0,5.67,2.31,10.33,6.94,14,4.62,3.67,10.52,5.5,17.69,5.5,10.58,0,20.39-2.77,29.44-8.31,9.04-5.54,13.56-11.31,13.56-17.31v-13.5Z"/>
</svg>