<?xml version="1.0" encoding="UTF-8"?>
<svg id="Layer_1" data-name="Layer 1" xmlns="http://www.w3.org/2000/svg" width="10cm" height="10cm" viewBox="0 0 283.46 283.46">
  <defs>
    <style>
      .cls-1 {
        stroke-width: 0px;
      }
    </style>
  </defs>
  <path class="cls-1" d="M109.42,92.91c4.67-5.83,10.5-10.29,17.5-13.38,7-3.08,14.92-4.62,23.75-4.62,16.75,0,30.71,5.65,41.88,16.94,11.17,11.29,16.75,25.27,16.75,41.94s-5.73,30.33-17.19,41.75c-11.46,11.42-25.44,17.12-41.94,17.12-8.75,0-16.37-1.54-22.87-4.62s-11.83-7.75-16-14v10c0,2.25-.4,3.88-1.19,4.88-.79,1-2.11,1.5-3.94,1.5h-22.88c-3.25,0-5.67-.75-7.25-2.25-1.58-1.5-2.38-3.75-2.38-6.75,0-3.33.96-5.6,2.88-6.81,1.92-1.21,5.71-1.81,11.38-1.81h2.62V44.79h-2.38c-5.67,0-9.54-.67-11.62-2-2.08-1.33-3.12-3.67-3.12-7,0-3,.83-5.25,2.5-6.75,1.67-1.5,4.12-2.25,7.38-2.25h19c2.5,0,4.31.42,5.44,1.25,1.12.83,1.69,2.12,1.69,3.88v61ZM148.42,173.04c11.75,0,21.29-3.71,28.62-11.12,7.33-7.42,11-17.04,11-28.88s-3.73-21.12-11.19-28.62c-7.46-7.5-16.94-11.25-28.44-11.25s-21.06,3.73-28.44,11.19c-7.38,7.46-11.06,17.02-11.06,28.69s3.69,21.25,11.06,28.75,16.85,11.25,28.44,11.25Z"/>
</svg>