<?xml version="1.0" encoding="UTF-8"?>
<svg id="Layer_1" data-name="Layer 1" xmlns="http://www.w3.org/2000/svg" width="10cm" height="10cm" viewBox="0 0 283.46 283.46">
  <defs>
    <style>
      .cls-1 {
        stroke-width: 0px;
      }
    </style>
  </defs>
  <path class="cls-1" d="M99.42,138.16c.67,12.04,4.73,21.34,12.19,27.91,7.46,6.56,17.64,9.84,30.56,9.84,9.75,0,20.37-2.6,31.87-7.81,11.5-5.21,18.46-7.81,20.88-7.81s4.58.79,6.25,2.38c1.67,1.58,2.5,3.54,2.5,5.88s-.88,4.62-2.62,6.62c-1.75,2-4.54,3.95-8.38,5.85-8.33,4.05-16.94,7.16-25.81,9.31-8.88,2.15-17.69,3.23-26.44,3.23-19,0-34.21-5.48-45.62-16.44-11.42-10.96-17.12-25.48-17.12-43.56s6.04-33.33,18.12-44.75c12.08-11.42,27.83-17.12,47.25-17.12,17.58,0,32.17,5.33,43.75,16,11.58,10.67,17.38,23.58,17.38,38.75,0,4.67-.98,7.79-2.94,9.38-1.96,1.58-7.27,2.38-15.94,2.38h-85.87ZM100.04,121.79h81.37c-1.25-9.92-5.4-17.89-12.44-23.94-7.04-6.04-15.69-9.06-25.94-9.06-11.08,0-20.42,2.92-28,8.75-7.58,5.83-12.58,13.92-15,24.25Z"/>
</svg>